<?xml version="1.0" encoding="iso-8859-1"?>
<!-- Generator: Adobe Illustrator 19.0.0, SVG Export Plug-In . SVG Version: 6.00 Build 0)  -->
<svg version="1.1" id="Capa_1" xmlns="http://www.w3.org/2000/svg" xmlns:xlink="http://www.w3.org/1999/xlink" x="0px" y="0px"
	 viewBox="0 0 480 480" style="enable-background:new 0 0 480 480;" xml:space="preserve">
<rect x="140.001" y="256" style="fill:#884D00;" width="144" height="184"/>
<rect x="164.001" y="168" style="fill:#693B00;" width="96" height="88"/>
<path style="fill:#4D4D4D;" d="M108.001,168h208c0,0-48-24-104-24S108.001,168,108.001,168z"/>
<rect x="116.001" y="440" style="fill:#773F03;" width="192" height="32"/>
<rect x="92.001" y="464" style="fill:#693B00;" width="240" height="16"/>
<path style="fill:#FFB398;" d="M148.001,8l-112,72l3.319,6.638c7.238,14.475,24.144,21.268,39.385,15.825L164.001,72h48h48h-48
	c-17.673,0-32,14.327-32,32v16h120l24-24h40V8H148.001z"/>
<rect x="364.001" y="8" style="fill:#EE8700;" width="80" height="88"/>
<rect x="164.001" y="256" style="fill:#773F03;" width="96" height="112"/>
<g>
	<rect x="212.001" y="288" style="fill:#FFFFFF;" width="16" height="16"/>
	<rect x="212.001" y="328" style="fill:#FFFFFF;" width="16" height="16"/>
	<rect x="212.001" y="368" style="fill:#FFFFFF;" width="16" height="16"/>
	<rect x="212.001" y="408" style="fill:#FFFFFF;" width="16" height="16"/>
</g>
<g>
	<path style="fill:#FE946F;" d="M260.001,40h-104L50.681,99.243c8.103,5.189,18.388,6.662,28.023,3.22L164.001,72h48h48V40z"/>
	<polygon style="fill:#FE946F;" points="316.001,64 276.001,104 180.001,104 180.001,120 300.001,120 324.001,96 364.001,96 
		364.001,64 	"/>
</g>
<rect x="364.001" y="64" style="fill:#CE7409;" width="80" height="32"/>
<g>
	<rect x="188.001" y="168" style="fill:#492702;" width="16" height="88"/>
	<rect x="164.001" y="256" style="fill:#492702;" width="16" height="184"/>
	<rect x="148.001" y="440" style="fill:#492702;" width="16" height="24"/>
	<rect x="132.001" y="464" style="fill:#492702;" width="16" height="16"/>
</g>
<g>
	<rect x="172.001" y="168" style="fill:#FFFFFF;" width="8" height="88"/>
	<rect x="148.001" y="256" style="fill:#FFFFFF;" width="8" height="184"/>
	<rect x="132.001" y="440" style="fill:#FFFFFF;" width="8" height="24"/>
	<rect x="116.001" y="464" style="fill:#FFFFFF;" width="8" height="16"/>
</g>
<path d="M316.001,440c0-4.422-3.582-8-8-8h-16V256c0-4.422-3.582-8-8-8h-16v-72h48c3.711,0,6.934-2.555,7.785-6.164
	s-0.891-7.336-4.207-8.992C317.548,159.828,269.231,136,212.001,136s-105.547,23.828-107.578,24.844
	c-3.316,1.656-5.059,5.383-4.207,8.992S104.29,176,108.001,176h48v72h-16c-4.418,0-8,3.578-8,8v176h-16c-4.418,0-8,3.578-8,8v24h-16
	v16h24h192h24v-16h-16V440z M212.001,152c21.199,0,41.336,3.617,57.937,8h-9.938h-96h-10.008
	C170.587,155.625,190.739,152,212.001,152z M172.001,176h80v72h-80V176z M148.001,264h16h96h16v168h-128V264z M124.001,464v-16h16
	h144h16v16H124.001z"/>
<rect x="204.001" y="280" width="16" height="16"/>
<rect x="204.001" y="320" width="16" height="16"/>
<rect x="204.001" y="360" width="16" height="16"/>
<rect x="204.001" y="400" width="16" height="16"/>
<path d="M444.001,0h-296c-1.535,0-3.035,0.438-4.324,1.273l-112,72c-3.438,2.203-4.66,6.648-2.832,10.305l3.32,6.641
	c9.039,18.07,30.184,26.57,49.23,19.773L165.388,80h14.633c-5.031,6.688-8.02,15-8.02,24v16c0,4.422,3.582,8,8,8h120
	c2.121,0,4.156-0.844,5.656-2.344L327.313,104h116.688c4.418,0,8-3.578,8-8V8C452.001,3.578,448.419,0,444.001,0z M324.001,88
	c-2.121,0-4.156,0.844-5.656,2.344L296.688,112H188.001v-8c0-13.234,10.766-24,24-24h48c4.418,0,8-3.578,8-8s-3.582-8-8-8h-96
	c-0.918,0-1.828,0.156-2.691,0.469L76.013,94.93c-11.41,4.078-24.113-1.023-29.535-11.867l-0.109-0.219L150.352,16h205.648v72
	H324.001z M436.001,88h-64V16h64V88z"/>
<path d="M172.001,280h-16v88c0,4.422,3.582,8,8,8h24v-16h-16V280z"/>
<path d="M252.001,360h-16v16h24c4.418,0,8-3.578,8-8v-88h-16V360z"/>
<g>
</g>
<g>
</g>
<g>
</g>
<g>
</g>
<g>
</g>
<g>
</g>
<g>
</g>
<g>
</g>
<g>
</g>
<g>
</g>
<g>
</g>
<g>
</g>
<g>
</g>
<g>
</g>
<g>
</g>
</svg>
