<?xml version="1.0" encoding="iso-8859-1"?>
<!-- Generator: Adobe Illustrator 19.0.0, SVG Export Plug-In . SVG Version: 6.00 Build 0)  -->
<svg version="1.1" id="Capa_1" xmlns="http://www.w3.org/2000/svg" xmlns:xlink="http://www.w3.org/1999/xlink" x="0px" y="0px"
	 viewBox="0 0 512 512" style="enable-background:new 0 0 512 512;" xml:space="preserve">
<g>
	<g>
		<rect x="415.031" y="113" width="65.14" height="399"/>
	</g>
</g>
<g>
	<g>
		<path d="M294.903,0c-14.459,0-28.13,3.428-40.253,9.505C242.528,3.428,228.856,0,214.397,0c-49.697,0-90.129,40.432-90.129,90.129
			v22.868H31.829V512h353.204V90.129C385.033,40.432,344.601,0,294.903,0z M204.774,90.129v22.868h-50.506V90.129
			c0-33.155,26.974-60.129,60.129-60.129c4.216,0,8.331,0.441,12.304,1.271C213.045,47.073,204.774,67.653,204.774,90.129z
			 M274.526,112.997h-39.752V90.129c0-17.688,7.68-33.612,19.876-44.625c12.196,11.012,19.876,26.937,19.876,44.625V112.997z
			 M355.034,112.997L355.034,112.997h-50.507V90.129c0-22.476-8.271-43.056-21.927-58.858c3.974-0.83,8.088-1.271,12.305-1.271
			c33.155,0,60.129,26.974,60.129,60.129V112.997z"/>
	</g>
</g>
<g>
</g>
<g>
</g>
<g>
</g>
<g>
</g>
<g>
</g>
<g>
</g>
<g>
</g>
<g>
</g>
<g>
</g>
<g>
</g>
<g>
</g>
<g>
</g>
<g>
</g>
<g>
</g>
<g>
</g>
</svg>
