<?xml version="1.0" encoding="iso-8859-1"?>
<!-- Generator: Adobe Illustrator 19.0.0, SVG Export Plug-In . SVG Version: 6.00 Build 0)  -->
<svg version="1.1" id="Capa_1" xmlns="http://www.w3.org/2000/svg" xmlns:xlink="http://www.w3.org/1999/xlink" x="0px" y="0px"
	 viewBox="0 0 496.016 496.016" style="enable-background:new 0 0 496.016 496.016;" xml:space="preserve">
<g>
	<rect x="296.008" y="88" style="fill:#F0BC5E;" width="56" height="96"/>
	<path style="fill:#F0BC5E;" d="M424.008,400C392,400,392,416,359.992,416s-32.008-16-64.016-16c-31.984,0-31.984,16-63.976,16
		c-32,0-32-16-63.992-16h-4.568c19.88,46.752,63.928,81.288,116.08,87.08c66.568,7.392,125.176-30.704,149.032-87.08H424.008z"/>
	<path style="fill:#F0BC5E;" d="M296.008,352L296.008,352c-13.256,0-24-10.744-24-24v-3.376c0-3.056,0.584-6.08,1.72-8.912
		l11.312-28.28c1.792-4.488,6.136-7.432,10.968-7.432l0,0c4.832,0,9.176,2.944,10.968,7.424l11.312,28.28
		c1.136,2.84,1.72,5.864,1.72,8.92V328C320.008,341.256,309.264,352,296.008,352z"/>
	<path style="fill:#F0BC5E;" d="M376.008,376L376.008,376c-13.256,0-24-10.744-24-24v-3.376c0-3.056,0.584-6.08,1.72-8.912
		l11.312-28.28c1.792-4.488,6.136-7.432,10.968-7.432l0,0c4.832,0,9.176,2.944,10.968,7.424l11.312,28.28
		c1.136,2.84,1.72,5.864,1.72,8.92V352C400.008,365.256,389.264,376,376.008,376z"/>
	<path style="fill:#F0BC5E;" d="M216.008,376L216.008,376c-13.256,0-24-10.744-24-24v-3.376c0-3.056,0.584-6.08,1.72-8.912
		l11.312-28.28c1.792-4.488,6.136-7.432,10.968-7.432l0,0c4.832,0,9.176,2.944,10.968,7.424l11.312,28.28
		c1.136,2.84,1.72,5.864,1.72,8.92V352C240.008,365.256,229.264,376,216.008,376z"/>
</g>
<path d="M421.128,257.84c-7.312-10.568-11.48-22.16-12.616-33.84h15.496c8.824,0,16-7.176,16-16v-16c0-8.824-7.176-16-16-16h-24V80
	h-32V48h16V0h-176v48h16v32h-32v96h-24c-8.824,0-16,7.176-16,16v16c0,8.824,7.176,16,16,16h15.528
	c-1.08,11.704-5.088,23.056-12.12,33.096c-1.16,1.656-2.152,3.408-3.24,5.104c-10.232-4.04-21-6.2-32.168-6.2
	c-48.52,0-88,39.48-88,88s39.48,88,88,88c11.144,0,21.888-2.144,32.088-6.16c24.152,37.56,64.304,64.064,110.536,69.192
	c5.912,0.664,11.792,0.984,17.616,0.984c37.472,0,72.848-13.448,101.096-38.728c32.2-28.816,50.664-70.112,50.664-113.288
	C448.008,313.072,438.712,283.28,421.128,257.84z M395.184,240h-27.176v-16h24.248C392.672,229.384,393.688,234.728,395.184,240z
	 M256.008,224v16h-16v-16H256.008z M272.008,224h16v16h-16V224z M304.008,224h16v16h-16V224z M336.008,224h16v16h-16V224z
	 M352.008,80h-48V48h48V80z M224.008,16h144v16h-144V16z M240.008,48h48v32h-48V48z M208.008,96h80v80h-80V96z M168.008,192h184v-16
	h-48V96h80v80h-16v16h56v16h-256V192z M224.008,224v16h-27.072c1.456-5.232,2.44-10.576,2.84-16H224.008z M144.928,360.88
	c0.776,7.144,2.184,14.096,3.928,20.92c-4.12,1.4-8.448,2.2-12.848,2.2c-22.056,0-40-17.944-40-40s17.944-40,40-40
	c4.4,0,8.72,0.8,12.84,2.2C144.304,323.856,142.912,342.376,144.928,360.88z M136.008,416c-39.696,0-72-32.304-72-72
	s32.304-72,72-72c8.368,0,16.472,1.416,24.2,4.176c-2.416,4.832-4.616,9.76-6.496,14.808c-5.696-1.888-11.648-2.984-17.704-2.984
	c-30.88,0-56,25.12-56,56s25.12,56,56,56c6.008,0,11.92-1.08,17.576-2.944c1.896,5.08,4.064,10.016,6.48,14.832
	C152.384,414.616,144.328,416,136.008,416z M386.672,445.368c-29.2,26.144-66.936,38.128-106.272,33.768
	c-62.496-6.944-112.776-57.4-119.568-119.976c-3.576-32.976,4.832-65.968,23.68-92.88c2.32-3.312,4.36-6.752,6.168-10.272h210.768
	c1.904,3.736,4.064,7.392,6.52,10.944c15.72,22.736,24.04,49.384,24.04,77.048C432.008,382.632,415.488,419.584,386.672,445.368z"/>
<rect x="320.008" y="112" width="16" height="16"/>
<rect x="320.008" y="144" width="16" height="16"/>
<g>
</g>
<g>
</g>
<g>
</g>
<g>
</g>
<g>
</g>
<g>
</g>
<g>
</g>
<g>
</g>
<g>
</g>
<g>
</g>
<g>
</g>
<g>
</g>
<g>
</g>
<g>
</g>
<g>
</g>
</svg>
