<svg id="Layer_1" enable-background="new 0 0 512 512" height="512" viewBox="0 0 512 512" width="512" xmlns="http://www.w3.org/2000/svg"><g><g><g id="XMLID_160_"><g id="XMLID_162_"><g id="XMLID_163_"><g id="XMLID_164_"><g id="XMLID_165_"><g id="XMLID_166_"><g id="XMLID_167_"><g id="XMLID_168_"><g id="XMLID_169_"><g id="XMLID_170_"><g id="XMLID_171_"><g id="XMLID_172_"><g id="XMLID_173_"><g id="XMLID_174_"><circle id="XMLID_175_" cx="256" cy="256" fill="#ffe69f" r="256"/></g></g></g></g></g></g></g></g></g></g></g></g></g></g></g><path d="m512 256c0-20.283-2.37-40.012-6.829-58.934l-99.658-104.67-297.034 328.879 78.924 81.415c21.833 6.059 44.834 9.31 68.597 9.31 141.385 0 256-114.615 256-256z" fill="#ffd261"/><g><g><path d="m279.566 289.644v55.96c0 48.367-35.499 88.85-81.74 96.65-2.555.431-19.071-24.23-19.071-24.23-7.86 0-23.669 24.66-30.999 22.89-42.99-10.36-75.18-49.26-75.18-95.31v-55.96c0-49.33 36.94-90.45 84.53-97.07 0 0 47.951 1.89 50.702 2.66 41.269 11.544 71.758 49.598 71.758 94.41z" fill="#a06564"/><path d="m279.563 289.648v55.96c0 48.36-35.5 88.85-81.74 96.65-.03 0-.06.01-.09.01-2.81-.11-18.98-24.24-18.98-24.24-.81 0-1.71.26-2.68.73v-225.38c13.73.61 30.16 1.42 31.74 1.86.13.04.26.07.39.11 41.06 11.67 71.36 49.62 71.36 94.3z" fill="#875959"/><path d="m219.616 378.214-21.79 64.038c-4.15.772-13.4 1.372-16.27 1.372h-10.96c-7.86 0-15.51-.94-22.84-2.71l12.72-59.88c3.79-17.86-.04-36.49-10.58-51.39l-5.86-8.29c-11.73-16.6-15.09-37.71-9.09-57.13l22.16-71.65c4.41-.62 8.92-.94 13.49-.94h10.96c6.1 0 18.021.536 26.646 3.712l-16.227 60.018c-.31 2.6-.46 5.19-.46 7.78 0 16.17 5.99 31.89 16.98 44 17.561 19.35 21.931 47.29 11.121 71.07z" fill="#684b52"/><g><g><g><path d="m219.613 378.218-21.79 64.03c-.03.01-.06.01-.09.02-4.19.77-13.33 1.36-16.18 1.36h-5.48v-251.99h5.48c6.1 0 18.02.53 26.65 3.71l-16.23 60.02c-.31 2.6-.46 5.19-.46 7.78 0 16.17 5.99 31.89 16.98 44 17.56 19.35 21.93 47.29 11.12 71.07z" fill="#563f46"/></g></g></g></g><g><path d="m439.424 166.382v55.96c0 48.367-35.498 88.85-81.74 96.65-2.555.431-19.071-24.23-19.071-24.23-7.86 0-23.669 24.66-30.999 22.89-42.99-10.36-75.18-49.26-75.18-95.31v-55.96c0-49.33 36.94-90.45 84.53-97.07 0 0 47.95 1.89 50.702 2.66 41.268 11.544 71.758 49.598 71.758 94.41z" fill="#a06564"/><path d="m439.42 166.386v55.96c0 48.36-35.5 88.85-81.74 96.65-.03 0-.06.01-.09.01-2.81-.11-18.98-24.24-18.98-24.24-.81 0-1.71.26-2.68.73v-225.38c13.73.61 30.16 1.42 31.74 1.86.13.04.26.07.39.11 41.06 11.67 71.36 49.62 71.36 94.3z" fill="#875959"/><path d="m379.474 254.952-21.79 64.038c-4.15.772-13.4 1.372-16.27 1.372h-10.96c-7.86 0-15.51-.94-22.84-2.71l12.72-59.88c3.79-17.86-.04-36.49-10.58-51.39l-5.86-8.29c-11.73-16.6-15.09-37.71-9.09-57.13l22.16-71.65c4.41-.62 8.92-.94 13.49-.94h10.96c6.1 0 18.021.536 26.647 3.712l-16.227 60.018c-.31 2.6-.46 5.19-.46 7.78 0 16.17 5.99 31.89 16.98 44 17.56 19.35 21.93 47.29 11.12 71.07z" fill="#684b52"/><g><g><g><path d="m379.47 254.956-21.79 64.03c-.03.01-.06.01-.09.02-4.19.77-13.33 1.36-16.18 1.36h-5.48v-251.99h5.48c6.1 0 18.02.53 26.65 3.71l-16.23 60.02c-.31 2.6-.46 5.19-.46 7.78 0 16.17 5.99 31.89 16.98 44 17.56 19.35 21.93 47.29 11.12 71.07z" fill="#563f46"/></g></g></g></g></g></g></svg>