<?xml version="1.0" encoding="iso-8859-1"?>
<!-- Generator: Adobe Illustrator 19.0.0, SVG Export Plug-In . SVG Version: 6.00 Build 0)  -->
<svg version="1.1" id="Capa_1" xmlns="http://www.w3.org/2000/svg" xmlns:xlink="http://www.w3.org/1999/xlink" x="0px" y="0px"
	 viewBox="0 0 496.016 496.016" style="enable-background:new 0 0 496.016 496.016;" xml:space="preserve">
<path style="fill:#F0BC5E;" d="M380.552,400h-4.544C344,400,344,416,311.992,416s-32.008-16-64.016-16
	c-31.984,0-31.984,16-63.976,16c-32,0-32-16-63.992-16h-4.568c19.88,46.752,63.928,81.288,116.08,87.08
	C298.088,494.48,356.696,456.384,380.552,400z"/>
<path d="M304.008,80v16h88v4.224c-19.36,16.528-32.352,39.256-36.736,64.416L353.288,176H142.664l-1.912-11.36
	c-4.392-25.16-17.384-47.88-36.744-64.416V96h88V80h-104v27.864l3.024,2.4c17.96,14.256,30.016,34.544,33.96,57.128l3.016,17.296
	v66.472c-24.312,31.232-35.424,69.728-31.08,109.72c7.592,69.968,63.832,126.392,133.712,134.16
	c5.912,0.656,11.784,0.976,17.616,0.976c37.472,0,72.848-13.448,101.096-38.728c32.192-28.816,50.656-70.112,50.656-113.288
	c0-33.776-11.352-66.344-32-92.936v-66.368l3.024-17.304c3.936-22.576,16-42.864,33.952-57.128l3.024-2.4V80H304.008z M144.008,240
	v-16h64v-16h-64v-16h104.208c-3.536,4.672-6.184,10.056-7.392,16h-16.816v16h16.808c1.216,5.944,3.856,11.328,7.392,16H144.008z
	 M256.008,216c0-13.232,10.768-24,24-24s24,10.768,24,24s-10.768,24-24,24S256.008,229.232,256.008,216z M352.072,208H319.2
	c-1.216-5.944-3.856-11.328-7.392-16h40.304L352.072,208z M319.2,224h32.84l-0.032,16H311.8
	C315.344,235.328,317.984,229.944,319.2,224z M338.672,445.368c-29.2,26.152-66.944,38.184-106.272,33.768
	c-62.496-6.944-112.776-57.4-119.568-119.968c-4.12-37.944,7.248-74.4,31.816-103.168h105.576l-9.288,16.248
	c-9.984,17.472-15.68,37.104-16.712,57.16c-9.4,3.248-16.216,12.096-16.216,22.592c0,13.232,10.768,24,24,24s24-10.768,24-24
	c0-10.336-6.608-19.088-15.792-22.464c1-17.32,5.984-34.256,14.608-49.352L268.648,256h22.72l13.824,24.184
	c8.624,15.096,13.608,32.032,14.608,49.352c-9.184,3.376-15.792,12.128-15.792,22.464c0,13.232,10.768,24,24,24s24-10.768,24-24
	c0-10.496-6.816-19.344-16.216-22.592c-1.032-20.056-6.728-39.688-16.712-57.16L309.792,256H351.4
	c20.992,24.624,32.608,55.696,32.608,88C384.008,382.632,367.488,419.576,338.672,445.368z M240.008,352c0,4.416-3.592,8-8,8
	s-8-3.584-8-8s3.592-8,8-8S240.008,347.584,240.008,352z M336.008,352c0,4.416-3.592,8-8,8s-8-3.584-8-8s3.592-8,8-8
	S336.008,347.584,336.008,352z"/>
<path style="fill:#F0BC5E;" d="M248.744,160h-1.472c-34.88,0-63.264-28.384-63.264-63.264c0-12.536,3.672-24.672,10.624-35.096
	l34.28-51.424C233.184,3.824,240.32,0,248.008,0c7.688,0,14.824,3.824,19.096,10.216l34.28,51.424
	c6.952,10.424,10.624,22.552,10.624,35.096C312.008,131.616,283.624,160,248.744,160z"/>
<g>
</g>
<g>
</g>
<g>
</g>
<g>
</g>
<g>
</g>
<g>
</g>
<g>
</g>
<g>
</g>
<g>
</g>
<g>
</g>
<g>
</g>
<g>
</g>
<g>
</g>
<g>
</g>
<g>
</g>
</svg>
