<svg id="圖層_1" data-name="圖層 1" xmlns="http://www.w3.org/2000/svg" xmlns:xlink="http://www.w3.org/1999/xlink" viewBox="0 0 434.23 158.31"><defs><style>.cls-1{fill:url(#未命名漸層_25);}.cls-2{fill:url(#未命名漸層_25-2);}</style><linearGradient id="未命名漸層_25" x1="134.72" y1="160.9" x2="120.66" y2="169.36" gradientUnits="userSpaceOnUse"><stop offset="0" stop-color="#eab93d"/><stop offset="0.11" stop-color="#e6b13a"/><stop offset="0.28" stop-color="#db9c33"/><stop offset="0.48" stop-color="#ca7a27"/><stop offset="0.72" stop-color="#b14917"/><stop offset="0.97" stop-color="#920d03"/><stop offset="1" stop-color="#8e0500"/></linearGradient><linearGradient id="未命名漸層_25-2" x1="108.81" y1="164" x2="121.58" y2="164" xlink:href="#未命名漸層_25"/></defs><title>LOGO_ORIGINAL</title><path d="M271.92,151.89c0,.05-.05.14-.1.16s-.11-.06-.17-.09l.19-.25Z" transform="translate(-64.72 -70.21)"/><path d="M264.67,142.89c0,.25-.21.37-.63.37s-.81,0-1.44-.09a14.15,14.15,0,0,0-1.45-.1c-.33,0-.82,0-1.48.1s-1.16.09-1.49.09q-.74,0-1.86-4.67T254,133.86c-.64,0-2.32-.06-5-.06h-4.12c-2.86,0-4.5,0-4.9.06-.62.06-1.29,1.64-2,4.74s-1.25,4.66-1.63,4.66h-5.86c-.35,0-.52-.15-.52-.43a6.05,6.05,0,0,1,.36-1.39l6.39-20.65q.79-2.49,4.9-14.39.72-2,2-6c.2-.78.43-1.17.67-1.17a10.32,10.32,0,0,1,1.46.15,10.84,10.84,0,0,0,1.46.16,9.17,9.17,0,0,0,1.42-.17,8.2,8.2,0,0,1,1.4-.17c.15,0,.37.38.65,1.14q.63,1.73,6.18,18.58Q264.66,142.67,264.67,142.89Zm-12.15-17q0-.9-2.34-8-2.27-6.9-3.21-9.06-5.39,16.28-5.39,17c0,.7.66,1.11,2,1.24q.1,0,2.55,0h2.69Q252.52,127.11,252.52,125.88Z" transform="translate(-64.72 -70.21)"/><path d="M304.83,142.49c0,.51-.22.77-.66.77s-.78,0-1.42-.09a13.68,13.68,0,0,0-1.42-.1,14.2,14.2,0,0,0-1.43.1c-.64.06-1.12.09-1.43.09s-.65-.34-.65-1c0-2.61.06-6.52.21-11.74s.2-9.13.2-11.74c0-.39-.07-.59-.2-.59s-.28.11-.37.34q-1.34,3.36-6.28,17.94-.81,2.81-2.32,7c-.12.27-.75.4-1.88.4-1.63,0-2.53-.17-2.71-.52-.59-1.66-1.43-4-2.52-7q-2.18-6.09-6.65-18.18a1.07,1.07,0,0,0-.34-.43.88.88,0,0,0-.21.68q0,4,.12,11.92t.12,11.93c0,.68-.22,1-.65,1s-.75,0-1.36-.09a12.81,12.81,0,0,0-1.35-.1,13.21,13.21,0,0,0-1.4.1c-.62.06-1.08.09-1.39.09s-.65-.2-.65-.59q0-3.42.27-10.24c.18-4.56.27-8,.27-10.25s-.09-5.92-.27-10.65-.27-8.29-.27-10.65a.63.63,0,0,1,.6-.68,37.53,37.53,0,0,1,5.34-.55c.17,0,.41.42.73,1.26q6.3,16.4,10.84,29.28c.71,2,1.14,3,1.28,3s.54-.82,1.12-2.46q3.54-10,9.82-29.65c.26-.81.55-1.21.86-1.21.59,0,1.48,0,2.67.13s2.08.12,2.67.12c.44,0,.65.25.65.74q0,3.54-.19,10.65t-.2,10.65q0,3.39.23,10.17C304.75,136.87,304.83,140.25,304.83,142.49Z" transform="translate(-64.72 -70.21)"/><path d="M338.34,129.94a15.54,15.54,0,0,1-2.74,9.22,8.73,8.73,0,0,1-7.35,4c-1.11,0-2.78,0-5-.1s-3.91-.09-5-.09c-.82,0-2.05,0-3.69.13s-2.87.12-3.69.12c-.43,0-.65-.24-.65-.71q0-3.39.28-10.19t.27-10.18q0-3.59-.27-10.74t-.28-10.74c0-.46.22-.68.65-.68l7,0,7,0q5.48,0,8.73,2.4,4,2.94,4,9.09a10.78,10.78,0,0,1-1,4.43,9.13,9.13,0,0,1-2.53,3.46c-.51.4-.76.65-.76.78s.25.34.76.67a9.16,9.16,0,0,1,3.18,3.81A12,12,0,0,1,338.34,129.94ZM331,112.25c0-2.89-1.09-4.85-3.28-5.85a16.91,16.91,0,0,0-6.49-.9c-2.92,0-4.38.26-4.38.77,0,.68,0,1.7-.08,3.06s-.07,2.38-.07,3.08c0,.47,0,1.2,0,2.19s0,1.72,0,2.21,2,.9,5.89.9Q331,117.71,331,112.25Zm.71,17.39q0-3.76-2.84-5.09a13.79,13.79,0,0,0-5.61-.86c-4.37,0-6.56.27-6.56.83v5c0,.74,0,1.87.05,3.39s.05,2.67.05,3.43c0,.2.56.36,1.67.46s2.76.15,4.95.15c2.74,0,4.72-.42,5.92-1.26C330.93,134.63,331.72,132.59,331.72,129.64Z" transform="translate(-64.72 -70.21)"/><path d="M367.68,137.06a6.89,6.89,0,0,1-.21,1.42c-.16.78-.26,1.26-.29,1.42q-.07,1.11-.36,3.24a.64.64,0,0,1-.68.55,7.25,7.25,0,0,1-1-.12,63.89,63.89,0,0,0-9.93-.56c-1.27,0-3.18,0-5.73.13s-4.47.12-5.74.12c-.57,0-.86-.3-.86-.9,0-2.3.11-5.75.33-10.37s.32-8.07.32-10.37-.1-6.71-.31-13.1c0-1.64-.13-4.1-.29-7.36l0-.43a.6.6,0,0,1,.68-.71c1.21,0,3,0,5.47.12s4.26.12,5.47.12,2.91,0,5.23-.12,4.06-.12,5.22-.12c.82,0,1.26.3,1.33.89.36,2.71.55,4.4.55,5.06,0,.47-.19.7-.58.7-1.47,0-3.71-.09-6.71-.29s-5.25-.29-6.76-.29-2.32.23-2.7.68-.56,1.57-.56,3.36v4.59a15.93,15.93,0,0,0,.08,2.19,1.23,1.23,0,0,0,1.36,1l.88,0h.89q5.1,0,9.17-.21c1.06-.05,2.31-.15,3.76-.31.36,0,.54.14.54.55,0,.66-.06,1.67-.19,3s-.2,2.38-.2,3.05c0,.37-.26.56-.78.56-.21,0-1-.07-2.32-.22q-1.46-.18-6.57-.18c-2.86,0-4.68,0-5.44.12s-1.1.49-1.2,1.3c0-.15,0,.64,0,2.37v4.56c0,2.14.28,3.47.84,4s1.52.64,3.26.64l2.86,0c1.22,0,4.63-.24,10.24-.74l.39,0C367.5,136.25,367.68,136.51,367.68,137.06Z" transform="translate(-64.72 -70.21)"/><path d="M400.22,143c0,.17-.14.25-.41.25s-.84,0-1.52-.09-1.18-.1-1.51-.1-.91,0-1.63.1-1.26.09-1.63.09-.7-.26-.91-.77c-.55-1.4-2.14-5.72-4.74-13a2.17,2.17,0,0,0-1.9-1.35q-.35,0-2.37,0a40.15,40.15,0,0,0-4.28.12c-.36.06-.55.58-.55,1.57q0,2.16.17,6.46c.12,2.86.17,5,.17,6.42,0,.44-.17.65-.52.65a13.75,13.75,0,0,1-1.57-.14,14.1,14.1,0,0,0-1.61-.14,12.81,12.81,0,0,0-1.35.1c-.61.06-1.06.09-1.36.09s-.65-.24-.65-.71q0-3.42.27-10.28T372.6,122q0-9.73-.6-20.77l0-.49c0-.41.35-.62,1.1-.62q2.24,0,6.71-.14t6.68-.14a13,13,0,0,1,9.28,3.27q3.86,3.6,3.86,10.23a19.8,19.8,0,0,1-1.05,7.18,13.48,13.48,0,0,1-4.06,5.27,1.1,1.1,0,0,0-.5.77q0,.44,3.12,8.2T400.22,143Zm-7.14-27.95q0-5.58-2.71-7.46c-1.34-.93-3.74-1.39-7.22-1.39-2.81,0-4.25.27-4.3.8q-.18,1.67-.18,8.91v5.89a1,1,0,0,0,.34.12c.31,0,.82.09,1.54.15,1.65.11,3.43.16,5.34.16Q393.08,122.24,393.08,115.06Z" transform="translate(-64.72 -70.21)"/><path d="M428.89,100.7q0,3-.2,9.07t-.19,9.08c0,1,0,2.44,0,4.37s0,3.39,0,4.35a47,47,0,0,1-1,10.94,18.22,18.22,0,0,1-5,9.09c-.33.31-.57.47-.71.47s-.26-.12-.42-.34a52.86,52.86,0,0,0-3.64-4.41.69.69,0,0,1-.24-.46.89.89,0,0,1,.29-.56,25.53,25.53,0,0,0,2.4-2.71,11.32,11.32,0,0,0,1.46-3.61q.64-2.83.65-11.68l0-4.65q0-2.9-.31-9.34-.31-6.19-.31-9.34c0-.59.25-.89.75-.89.33,0,.83,0,1.49.09s1.15.09,1.48.09.82,0,1.46-.09,1.12-.09,1.43-.09S428.89,100.28,428.89,100.7Z" transform="translate(-64.72 -70.21)"/><path d="M467.24,142.89c0,.25-.21.37-.63.37s-.81,0-1.44-.09a14.15,14.15,0,0,0-1.45-.1c-.33,0-.83,0-1.49.1s-1.15.09-1.48.09q-.74,0-1.87-4.67t-2.3-4.73c-.65,0-2.32-.06-5-.06h-4.12c-2.87,0-4.5,0-4.9.06-.62.06-1.29,1.64-2,4.74s-1.25,4.66-1.63,4.66h-5.86c-.35,0-.53-.15-.53-.43a6.3,6.3,0,0,1,.37-1.39l6.38-20.65q.81-2.49,4.9-14.39.74-2,2-6c.21-.78.44-1.17.68-1.17a10.32,10.32,0,0,1,1.46.15,10.68,10.68,0,0,0,1.46.16,9.3,9.3,0,0,0,1.42-.17,8.11,8.11,0,0,1,1.39-.17q.24,0,.66,1.14.61,1.73,6.17,18.58Q467.24,142.67,467.24,142.89Zm-12.15-17q0-.9-2.34-8-2.26-6.9-3.21-9.06-5.39,16.28-5.39,17c0,.7.66,1.11,2,1.24q.11,0,2.55,0h2.69Q455.09,127.11,455.09,125.88Z" transform="translate(-64.72 -70.21)"/><path d="M499,143c0,.17-.14.25-.42.25s-.83,0-1.51-.09-1.18-.1-1.51-.1-.91,0-1.63.1-1.27.09-1.63.09-.7-.26-.91-.77q-.84-2.1-4.74-13a2.18,2.18,0,0,0-1.91-1.35q-.33,0-2.37,0a39.9,39.9,0,0,0-4.27.12c-.37.06-.55.58-.55,1.57q0,2.16.17,6.46c.11,2.86.17,5,.17,6.42,0,.44-.18.65-.52.65a13.88,13.88,0,0,1-1.58-.14,14,14,0,0,0-1.6-.14,12.78,12.78,0,0,0-1.36.1q-.92.09-1.35.09c-.44,0-.65-.24-.65-.71q0-3.42.27-10.28t.27-10.28q0-9.73-.6-20.77l0-.49c0-.41.35-.62,1.09-.62,1.5,0,3.73,0,6.71-.14s5.21-.14,6.69-.14a13,13,0,0,1,9.27,3.27q3.87,3.6,3.86,10.23a20,20,0,0,1-1,7.18,13.51,13.51,0,0,1-4.07,5.27,1.08,1.08,0,0,0-.49.77q0,.44,3.11,8.2T499,143Zm-7.14-27.95c0-3.72-.91-6.21-2.71-7.46q-2-1.39-7.22-1.39c-2.82,0-4.25.27-4.3.8q-.18,1.67-.18,8.91v5.89a1,1,0,0,0,.33.12l1.54.15c1.65.11,3.43.16,5.34.16Q491.82,122.24,491.82,115.06Z" transform="translate(-64.72 -70.21)"/><path d="M264.13,194.16c-3.19,2.54-6.58,5.32-14.66,5.32-10.78,0-18.3-6.31-18.3-16.67s7.77-16.76,18.55-16.76c6.64,0,10.78,1.93,13.72,4.8.63.62.5.71.44.85a3.55,3.55,0,0,1-.69.9,8.25,8.25,0,0,1-1,.84.52.52,0,0,1-.81-.18c-2.45-3.25-5.71-4.85-11.66-4.85-9.34,0-15.1,5.5-15.1,14.26,0,9.75,6.89,14.41,15,14.41,5.21,0,9.4-1.65,12.22-4.94.44-.52.5-.57.88-.19.19.19.44.42.75.7a5,5,0,0,0,1.07.76C264.82,193.55,264.51,193.83,264.13,194.16Z" transform="translate(-64.72 -70.21)"/><path d="M313.69,194.16a21.73,21.73,0,0,1-14.48,5.27c-5.95,0-11.22-1.88-14.79-5.08a15.6,15.6,0,0,1-5.2-11.63,15.28,15.28,0,0,1,4.95-10.88,21.42,21.42,0,0,1,15-5.83,22.51,22.51,0,0,1,14,4.47,15.6,15.6,0,0,1,6,12.24A15.3,15.3,0,0,1,313.69,194.16Zm-2.76-22a18.34,18.34,0,0,0-11.78-3.91,17.31,17.31,0,0,0-12.28,4.85,13.6,13.6,0,0,0-4.39,9.61,13.83,13.83,0,0,0,4.57,10.17,18,18,0,0,0,12.1,4.28,17.49,17.49,0,0,0,12-4.52,13.89,13.89,0,0,0,4.82-10A13.58,13.58,0,0,0,310.93,172.17Z" transform="translate(-64.72 -70.21)"/><path d="M362.88,169c-12.1-.28-16.86-.33-21.5-.19-1.5,0-1.5.24-1.5,5.93,0,6.22.12,6.5,1,6.5,4.64,0,19-.19,19.93-.24.56,0,.69,0,.56.52a3.87,3.87,0,0,0-.06.85,4.54,4.54,0,0,0,.06.9c.06.23-.12.28-.94.28-6.08-.14-17.73-.24-19.23-.19-.95.05-1.26.14-1.26.71,0,2.25.25,13.6.31,14.07.07.66,0,.57-.62.71a8.57,8.57,0,0,1-1.32.09,10.64,10.64,0,0,1-1.31-.09c-.63-.1-.69-.1-.63-.85.06-.47.44-10.36.44-14.88s-.32-9.46-.63-15.44c-.06-.71,0-.85.63-.85.25,0,10.78-.19,12.15-.19,2,0,13-.14,13.54-.14.81,0,.94,0,.94.52a3,3,0,0,0,.06.71,4.61,4.61,0,0,1,.13.8C363.63,169,363.5,169,362.88,169Z" transform="translate(-64.72 -70.21)"/><path d="M406.41,169c-12.1-.28-16.86-.33-21.5-.19-1.5,0-1.5.24-1.5,5.93,0,6.22.13,6.5,1,6.5,4.64,0,19-.19,19.93-.24.56,0,.69,0,.56.52a3.87,3.87,0,0,0-.06.85,4.54,4.54,0,0,0,.06.9c.07.23-.12.28-.94.28-6.07-.14-17.73-.24-19.23-.19-.94.05-1.26.14-1.26.71,0,2.25.25,13.6.32,14.07.06.66,0,.57-.63.71a8.47,8.47,0,0,1-1.32.09,10.64,10.64,0,0,1-1.31-.09c-.63-.1-.69-.1-.63-.85.06-.47.44-10.36.44-14.88s-.31-9.46-.63-15.44c-.06-.71,0-.85.63-.85.25,0,10.78-.19,12.16-.19,1.94,0,13-.14,13.53-.14.82,0,.94,0,.94.52a3,3,0,0,0,.06.71,4.61,4.61,0,0,1,.13.8C407.16,169,407,169,406.41,169Z" transform="translate(-64.72 -70.21)"/><path d="M449.38,197.69a10.13,10.13,0,0,0-.13,1.27c-.06.52-.75.38-1.94.24s-5.26-.33-10.34-.33c-4.51,0-11.9-.05-12.66,0s-1.06-.14-1-.66.57-12.43.57-15.49c0-3.63-.57-14.78-.63-15.26-.13-.7.06-.84,1-.84l11.78,0c3.2,0,9.65-.14,11.09-.14.94,0,1.32,0,1.32.38a2.94,2.94,0,0,0,.13.89c.06.19.12.47.25.81s-.19.61-.76.56c-1.37-.09-6.76-.24-8.39-.28-14.85-.28-12.72-1.42-12.72,6.26,0,5.79,0,5.84,2.19,5.84,6.58,0,15.48,0,18.61-.33.38-.05.56.09.5.47a3.71,3.71,0,0,0-.12.85v.89c0,.33-.07.33-3.64.24-1.94,0-14.66,0-16.29.09-1.07.05-1.25,0-1.25,4.85,0,9.42.12,8.8,1.12,8.8,10.85,0,19.74-.51,20.62-.61s1.13,0,1.07.33C449.63,197.08,449.51,197.17,449.38,197.69Z" transform="translate(-64.72 -70.21)"/><path d="M492.79,197.69a10.13,10.13,0,0,0-.13,1.27c-.06.52-.75.38-1.94.24s-5.26-.33-10.34-.33c-4.51,0-11.9-.05-12.66,0s-1.06-.14-1-.66.56-12.43.56-15.49c0-3.63-.56-14.78-.62-15.26-.13-.7.06-.84,1-.84l11.78,0c3.2,0,9.65-.14,11.09-.14.94,0,1.32,0,1.32.38a3.35,3.35,0,0,0,.12.89c.07.19.13.47.25.81s-.18.61-.75.56c-1.38-.09-6.77-.24-8.39-.28-14.86-.28-12.73-1.42-12.73,6.26,0,5.79,0,5.84,2.2,5.84,6.58,0,15.48,0,18.61-.33.38-.05.56.09.5.47a3.71,3.71,0,0,0-.12.85v.89c0,.33-.07.33-3.64.24-1.94,0-14.66,0-16.29.09-1.07.05-1.26,0-1.26,4.85,0,9.42.13,8.8,1.13,8.8,10.84,0,19.74-.51,20.62-.61s1.13,0,1.06.33C493,197.08,492.91,197.17,492.79,197.69Z" transform="translate(-64.72 -70.21)"/><path d="M208.08,158.61A33.77,33.77,0,0,0,198,139.2c-3.7-3.49-7.63-6.17-12.81-6.65-1.45-.14-2.89-.39-4.33-.61a8.05,8.05,0,0,1-6.27-3.86c-1.07-1.83-2.36-3.54-3.57-5.29-4.36-6.34-8.07-13.25-15.08-17.29-.29-.17-.41-1.08-.25-1.52.66-1.88,1.57-3.69,2.16-5.6a3.54,3.54,0,0,1,3.36-2.73c2.19-.27,4.43-.79,5.8-2.7,2.62-3.64,3.79-7.54,1.72-11.94-2.54-5.39-7.12-8-12.62-8.8-6.3-.94-12.67-1.51-19-1.85-5.77-.3-11.55-.06-17.34-.06-6,0-11.91,0-17.88,0a18,18,0,0,0-2.53.21c-5.65.77-11.3,1.66-17,2.34-7.44.88-11.74,5.23-11.25,12.5a11.57,11.57,0,0,0,9.48,10.73c2,.36,4,.81,6,1.37a2.31,2.31,0,0,1,1.42,1.33c.6,2.22,1,4.48,1.47,6.75a4.37,4.37,0,0,1-1.51,4.25c-3.64,3.32-7.18,6.75-10.83,10-4.93,4.44-8.75,9.66-9.89,16.22a146.49,146.49,0,0,0-2.55,22c-.23,12.88.24,25.77.66,38.65a17.53,17.53,0,0,0,6.34,13.46c13.76,11.35,29.42,17.78,47.39,18.28A87.18,87.18,0,0,0,150.72,224c6.66-2.32,13.43-4.26,19.23-8.54,2.34-1.73,4.89-3.19,7.38-4.7a11.69,11.69,0,0,0,5.77-8.82c.6-4.47,1.3-5.1,5.72-5.89,9.38-1.69,15.69-7.05,18.23-16.25A48.1,48.1,0,0,0,208.08,158.61ZM88.87,90.55c-.19.39-.86.9-1.17.82a38.68,38.68,0,0,1-7.06-2.12,5.75,5.75,0,0,1-3-5c0-3.22,1.5-5,4.58-5.31Q88,78.29,93.8,78c10.19-.49,20.34-1.82,30.58-1.33,7.16.35,14.35.23,21.49.82a92.41,92.41,0,0,1,13.38,2.6,4.7,4.7,0,0,1,3.58,4.18c.28,1.83-.23,3.24-2.07,4l-.16.08c-3.72,1.93-3.72,1.94-6.8-.92-3.61-3.35-8-4.44-12.77-4.28-5,.18-10,.33-14.93.7-10.29.75-20.57,1.61-30.85,2.49A7.36,7.36,0,0,0,88.87,90.55Zm60.55,10.22c-.35.49-1.55.48-2.36.47-1,0-1.58-.56-1.72-1.7-.34-2.75-.82-5.49-1.25-8.24-.34-2.13,1.47-1.35,2.49-1.9.38.19.94.28,1.18.61a40.72,40.72,0,0,1,3.72,5.55C152.57,97.79,150.53,99.24,149.42,100.77Zm-13.48,1.52c-1.31.34-2-.36-2.33-1.7-.84-3.15-1.75-6.3-2.66-9.44-.26-.89,0-1.34.87-1.61,3.91-1.2,6.61.47,7.26,4.51.2,1.25.39,2.51.59,3.77C140.27,101.43,139.71,102.12,135.94,102.29Zm-11.92,1c-2.33,0-2.5-.16-2.66-2.35-.25-3.62-.57-7.24-.86-10.88a4,4,0,0,1,.68-.26c4-.37,4.07-.39,4.86,3.5a59.19,59.19,0,0,1,1,7.38C127.17,102.75,126.39,103.3,124,103.33Zm-9,.58c-1.5,0-1.66-.85-1.7-2-.12-3.25-.33-6.5-.35-9.76,0-1.9.85-2.31,3.46-1.89,0,3.93,0,7.74,0,11.55C116.39,102.69,116.6,103.87,115,103.91Zm-6.34-6.55c-.42,1.46-.89,3.4-1.58,5.24a2.06,2.06,0,0,1-1.62,1.12,2,2,0,0,1-1.38-1.38c0-3.57,0-7.13.21-10.69,0-.24,1.18-.75,1.4-.59A7.56,7.56,0,0,1,108,93.44C108.47,94.42,108.42,95.67,108.69,97.36Zm-8.7,4.93c0,1.22-.61,1.57-1.72,1.51-3-.16-4.21-1.28-4.67-4.31a23.17,23.17,0,0,1-.28-2.35c-.16-3.92,1.32-5.52,5.24-6,1.12-.12,1.43.3,1.43,1.27v5.11C100,99.13,100,100.71,100,102.29ZM170.23,208.1c-4.75,2.41-9.21,5.54-14.14,7.48a109.39,109.39,0,0,1-37.91,7.33,24,24,0,0,1-6.83-.95c-6.37-1.77-12.69-3.75-19-5.67a7,7,0,0,1-2.18-.9c-5.36-3.89-10.73-7.76-16-11.8-2.37-1.83-3-4.66-3.12-7.52-.09-1.76,0-3.53,0-5.29h.2q-.52-7.91-1.06-15.82c-.9-13.34-.47-26.58,2.95-39.61a20.66,20.66,0,0,1,5.81-9.52c4.8-4.74,9.69-9.39,14.58-14,1.5-1.43,3.38-1.67,5.4-1.7q13.92-.15,27.83-.52c5-.13,10.07-.49,15.11-.77,1-.06,2-.26,3.07-.35,5.07-.45,8.81,2.2,11.9,5.65a90.93,90.93,0,0,1,6.7,9.29c2,2.85,3.77,5.82,5.8,8.62a32.57,32.57,0,0,1,5.84,16.65c.72,8.1,1.13,16.23,1.51,24.36.36,7.59.38,15.19.79,22.78C177.79,201.62,175.34,205.51,170.23,208.1Zm11.7-58.62a7.27,7.27,0,0,1,4.3,3.66,21.88,21.88,0,0,1,2.63,14.07,34.59,34.59,0,0,1-2,7.13,12.51,12.51,0,0,1-2.09,2.81l-.68-.19C183.38,167.91,182.67,158.86,181.93,149.48Zm17.47,31.66a13.62,13.62,0,0,1-3.22,4.53c-3.47,3.39-8.11,4-12.54,5.17-1-3.39-.59-4.76,2-6.37a17.58,17.58,0,0,0,8.1-10.6,31.86,31.86,0,0,0-.76-20,21.08,21.08,0,0,0-9.32-11.06,10.84,10.84,0,0,1-3.57-3.65c-.85-1.4-.2-2,1.41-1.7,10.69,2.08,19.46,11.64,20.78,22.46A43.61,43.61,0,0,1,199.4,181.14Z" transform="translate(-64.72 -70.21)"/><path d="M139.67,156.31a27.39,27.39,0,0,0-11.41-7.93,14.79,14.79,0,0,0-4.18-1.07,9.86,9.86,0,0,0-7.16,2.7,33.36,33.36,0,0,0-10.86,16.1c-2.26,7.47,1.16,14.16,8.53,16.78a52.69,52.69,0,0,0,6.52,1.49c8.29-.15,16.92-5.55,20.16-13.11C143.51,166.05,143.35,160.9,139.67,156.31Zm-27.49,20.42c-.44.14-1.38-.43-1.7-.92a9,9,0,0,1-1.41-7.29,31,31,0,0,1,9.77-16.09,16.88,16.88,0,0,1,1.83-1.19c-.65,2.24-1.17,4-1.65,5.72-.8,2.92,0,5.6,1.15,8.29a20.69,20.69,0,0,1,1.34,4.84,3.5,3.5,0,0,1-1.9,3.85A55.78,55.78,0,0,1,112.18,176.73Zm25.21-5.38a20,20,0,0,1-16.07,10,9.69,9.69,0,0,1-6.51-1.69c1.69-.7,3.06-1.19,4.36-1.83,5.06-2.56,6.49-6.45,4.67-11.8a24.8,24.8,0,0,1-1.54-7.21c0-1.89.82-3.87,1.55-5.7a2.81,2.81,0,0,1,3.48-1.63c4.85.94,10.89,6.74,11.9,11.51A11.32,11.32,0,0,1,137.39,171.35Z" transform="translate(-64.72 -70.21)"/><path class="cls-1" d="M137.39,171.35a20,20,0,0,1-16.07,10,9.69,9.69,0,0,1-6.51-1.69c1.69-.7,3.06-1.19,4.36-1.83,5.06-2.56,6.49-6.45,4.67-11.8a24.8,24.8,0,0,1-1.54-7.21c0-1.89.82-3.87,1.55-5.7a2.81,2.81,0,0,1,3.48-1.63c4.85.94,10.89,6.74,11.9,11.51A11.32,11.32,0,0,1,137.39,171.35Z" transform="translate(-64.72 -70.21)"/><path class="cls-2" d="M119.61,173.94a55.78,55.78,0,0,1-7.43,2.79c-.44.14-1.38-.43-1.7-.92a9,9,0,0,1-1.41-7.29,31,31,0,0,1,9.77-16.09,16.88,16.88,0,0,1,1.83-1.19c-.65,2.24-1.17,4-1.65,5.72-.8,2.92,0,5.6,1.15,8.29a20.69,20.69,0,0,1,1.34,4.84A3.5,3.5,0,0,1,119.61,173.94Z" transform="translate(-64.72 -70.21)"/><path d="M84.28,190.24c-1.94,0-3.72-2-3.82-4.14-.13-2.83-.17-5.68-.57-8.47a66.93,66.93,0,0,1,.19-21c1.27-7.34,2.89-14.63,4.74-21.85a19.08,19.08,0,0,1,8.72-11.92,5.14,5.14,0,0,1,4.88-.29,2.41,2.41,0,0,1,1.3,1.52c.07.42-.63,1.07-1.11,1.46a7.45,7.45,0,0,1-1.63.79,10.69,10.69,0,0,0-6.18,7C88.92,139.84,87,146.36,85.35,153c-1.43,5.68-1,11.47-.27,17.21.69,5.23,1.52,10.44,2.27,15.66C87.65,188,86.05,190.22,84.28,190.24Z" transform="translate(-64.72 -70.21)"/><path d="M162.06,143.61a2.55,2.55,0,0,1,2.66,2.11,63,63,0,0,1,3,17.7c.15,3.09.48,6.2.33,9.28a70.75,70.75,0,0,1-1.27,11.17c-1.58,7.51-6.51,12.23-13.6,14.6a81.71,81.71,0,0,1-10.81,2.42c-2.15.4-3.48-.63-3.64-2.5-.18-2.1.61-2.81,3.12-2.92,7.32-.31,13.6-2.82,18.28-8.71a12.15,12.15,0,0,0,2.74-8.09c-.08-3.62.09-7.25,0-10.88-.21-7.16-.52-14.31-.78-21.47C162,145.44,162.06,144.56,162.06,143.61Z" transform="translate(-64.72 -70.21)"/></svg>