<svg id="圖層_1" data-name="圖層 1" xmlns="http://www.w3.org/2000/svg" xmlns:xlink="http://www.w3.org/1999/xlink" viewBox="0 0 412.22 210.47"><defs><style>.cls-1{fill:url(#未命名漸層_48);}.cls-2{fill:url(#未命名漸層_50);}.cls-3{font-size:58.61px;font-family:BerlinSansFB-Reg, Berlin Sans FB;letter-spacing:0em;}.cls-4{letter-spacing:0em;}.cls-5{letter-spacing:-0.01em;}.cls-6{letter-spacing:-0.01em;}.cls-7{letter-spacing:0.01em;}.cls-8{letter-spacing:0.02em;}.cls-9{letter-spacing:0em;}.cls-10{letter-spacing:0em;}.cls-11{font-size:47.52px;font-family:Berlinsans-LightExpert, Berlinsans LightExpert;font-weight:300;letter-spacing:0.2em;}.cls-12{letter-spacing:0.18em;}.cls-13{letter-spacing:0.19em;}.cls-14{letter-spacing:0.18em;}.cls-15{letter-spacing:0.2em;}</style><linearGradient id="未命名漸層_48" x1="59.86" y1="242.75" x2="87.61" y2="226.73" gradientUnits="userSpaceOnUse"><stop offset="0" stop-color="#772c0a"/><stop offset="0.13" stop-color="#7e3509"/><stop offset="0.34" stop-color="#924f08"/><stop offset="0.62" stop-color="#b37805"/><stop offset="0.94" stop-color="#e0b101"/><stop offset="1" stop-color="#e9bd00"/></linearGradient><linearGradient id="未命名漸層_50" x1="52" y1="238.33" x2="76.7" y2="224.07" gradientUnits="userSpaceOnUse"><stop offset="0" stop-color="#772c0a"/><stop offset="0.6" stop-color="#bd8504"/><stop offset="1" stop-color="#e9bd00"/></linearGradient></defs><title>logo_original</title><path d="M139.05,210.47c-.09-2-.83-4-.79-5.95.08-4.28-.21-8.35-2.11-12.3-2.2-4.58-4.79-8.71-9.05-11.62-1.45-1-2.71-2.25-4.45-2.82a6.08,6.08,0,0,1-2.67-1.6c-3.15-3.5-8.38-6.29-10.69-10.56s-3.09-9.2-4.5-13.87c-.42-1.41-.58-2.92-1.09-4.29-1.48-4-.86-6.53,2.25-9.3a3.23,3.23,0,0,0,1-2.1c0-4.21.37-8.32-.55-12.63-1.14-5.29-4.28-8.62-8.55-9.89a98.82,98.82,0,0,0-20-3.31C71,109.64,64,110,57,109.8c-3.29-.08-6.58-.31-9.86-.58-3.85-.31-7.69-1-11.55-1-3.29,0-7.13-.28-9.12,3.2a21.51,21.51,0,0,0-3,8.28c-.4,4.31.09,8.7.32,13a11.14,11.14,0,0,0,.85,4.08c1.94,4,4.69,7.19,9.35,8.23a2.55,2.55,0,0,1,1.73,1.51,41.68,41.68,0,0,1,.68,8.39c-.39,6.21-5.1,9.68-9.25,13.49-5.31,4.87-11.84,8.32-14.91,15.66-3.53,8.45-5.65,16.95-4.78,26,.8,8.38,2,16.71,3,25.07.83,7.16,1.61,14.33,2.29,21.52.41,4.18.42,8.42.91,12.59.66,5.68,2.18,11.31,2.28,17,.12,6.82,3.23,12.26,6.14,17.91a4,4,0,0,0,1.58,1.31c2.38,1.38,4.72,2.83,7.19,4A95.55,95.55,0,0,0,42,314.37c3.31,1.12,6.87,1.53,10.32,2.21,8.35,1.66,16.76,2.63,25.34,1.75,4.33-.44,8.68-.68,13-1v-.07A15.07,15.07,0,0,0,93.2,317c5.57-1.45,11.13-2.92,16.64-4.61.62-.19,1.23-.39,1.82-.63,3.77-1.53,7.3-3.6,10.91-5.49.11-.06.17-.24.28-.31,2-1.29,3.93-2.72,6-3.81,1.32-.69,5.3-4.89,5.2-6.33a29.59,29.59,0,0,1,1-8.89,69.77,69.77,0,0,0,1.43-10.54c.51-6.54,1.22-17.25,1.55-23.81.27-5.21.68-10.43.75-15.64.1-6.82,0-13.63,0-20.44C138.77,214.47,139.15,212.46,139.05,210.47ZM89,117.62c5.18.33,7.9,3.22,8.17,8.53,0,.91.08,1.82.12,2.74h.08c0,.77,0,1.55,0,2.32,0,1.73-.29,5.76-1.85,7.69-5.79,4.32-5-1.24-5-1.76a89.74,89.74,0,0,0-.36-9.45c-.43-2.92-1.58-5.72-2.25-8.61C87.74,118.69,88.61,117.6,89,117.62Zm-13.25-1.35a22.3,22.3,0,0,0,2.31.23c1.55,0,1.91.62,2,2,.18,3.49.57,7,1,10.46.37,3.08.52,6.18.79,9.27.15,1.71-.52,2.53-2.29,2.44a18.1,18.1,0,0,0-2.32.17c-2.79.19-3.33-.39-2.62-2.89a6.26,6.26,0,0,0,.22-2.28c-.24-2.54-.53-5.07-.79-7.6.2,0-.3-6.16-.82-9.17C72.81,116.84,73.63,116,75.72,116.27Zm-16.29-.49c5.54,0,5.54,0,5.8,5.29.31,6,.57,11.92.92,17.88.09,1.59-.4,2.17-2,2a62.35,62.35,0,0,0-6.56-.29c-2.1,0-2.81-1.1-2.94-3-.36-5.12-.7-10.25-1.16-15.36A6,6,0,0,1,59.43,115.78ZM30,120.27c.41-4.86,4.73-5.47,7.32-5.68,6,0,5.93.24,6.38,6.41.43,5.91,1.22,11.78,2,17.64.24,1.74-.39,2-1.78,1.89-1.82-.17-3.65-.34-5.47-.55C27.44,139.91,29.85,122.45,30,120.27Zm98.51,110.16c-.1,6.1-.57,12.21-.77,18.32-.12,3.59.06,7.19,0,10.78-.13,4.43-.38,8.86-.68,13.29-.2,3.09-.58,6.16-.89,9.25-.2,2-2.06,14.2-4.26,15.51-5.42,3.24-10.82,6.6-16.49,9.35-2.91,1.42-6.38,1.72-9.63,2.39-4.2.88-3.54,1-7.76,1.81,0-.22-9.23.68-11.36.88a24.25,24.25,0,0,1-5.18.07c-10.59-1.24-21.27-2.22-31.12-6.62a92.35,92.35,0,0,1-9.38-5c-1.35-.8-4.55-20.5-4.84-21.15-1.61-3.6-.71-7.58-1.2-11.36-.93-7.2-2.05-14.37-3-21.57-.5-4-.58-8.09-1.12-12.09-.45-3.3-1.34-6.54-1.94-9.82-.18-1,0-2.05-.1-3.07-.59-5.65-1.66-11.3-1.7-17A30,30,0,0,1,20.92,189c.6-1,.91-2.27,1.59-3.23a50.27,50.27,0,0,1,5.14-6.6c4.55-4.52,10.23-7.91,13.45-13.74,1.26-2.28,3.31-4.42,3.71-6.83.5-3-.07-6.17-.7-9.15-.53-2.47-.38-2.94,2.22-2.83,8.59.38,17.18,1,25.77.93,7.11-.09,14.22-1,21.32-1.73,1.58-.15,2,.15,1.91,1.69-.31,7.73,2.3,14.89,5.71,21.36,2.67,5.05,7.76,8.56,12.89,11.65,4.67,2.81,8.76,6.3,11.26,11.65,3,6.51,3.14,13.24,3.21,20.12C128.46,218.34,128.66,224.38,128.55,230.43Z" transform="translate(-7.33 -108.19)"/><path d="M200.67,231.16c0,.05-.06.13-.1.15s-.1-.05-.16-.08l.18-.24Z" transform="translate(-7.33 -108.19)"/><path d="M88,213.51a2,2,0,0,0-.41-.81c-4.35-3.39-9.15-5.41-14.88-4.68,0-.29-8.75,1.69-12.43,4-7,4.37-10.26,11.53-11.4,19.45-.54,3.83-.72,8.07.4,11.67,1.49,4.79,3.73,9.34,9,11.95,4.12,2,8.27,4.07,12.68,4.15,7.44.14,12.93-4.77,16.49-10.38,2.7-4.25,3.92-10.14,3.84-15.27C91.23,226.74,89.23,220.31,88,213.51ZM58.57,248.35a18,18,0,0,1-5.17-9.73c-1.19-7.86,2-10.6,3.26-14.1.42-1.16,1.09-2.24,1.43-3.42,1.49-5.11,6-6.53,10.16-8.42a5.5,5.5,0,0,1,1.79-.14,5.21,5.21,0,0,1-.73,1.58c-3.11,3.34-4.08,7.15-2.48,11.46,1.06,2.84,2.47,5.56,3.42,8.43,1.68,5.08-2.93,14.44-9.75,15.58C59.93,249.68,59.1,248.9,58.57,248.35Zm23.58-3.42c-2.66,5.16-6.69,9-13.05,8.9-1.18,0-2.36-.77-3.53-1.19.67-.61,1.32-1.25,2-1.83a9.2,9.2,0,0,1,1.57-1.06c1.75-.93,3.46-3.79,4.58-5.2,2.29-2.89,3.05-4.6,2.89-8.41-.16-4,.59-7.46-2.42-10.71-.65-.7-2.09-1.49-2.26-2.64.09,0-.81-1.54,2.09-5.75.83-1.52,2.66-2.66,4.3-3.5.48-.25,2.17.84,2.63,1.69,2.82,5.16,3.72,10.72,3.74,16.63C84.73,236.48,84.22,240.94,82.15,244.93Z" transform="translate(-7.33 -108.19)"/><path class="cls-1" d="M84.71,231.86c0,4.62-.49,9.08-2.56,13.07-2.66,5.16-6.69,9-13.05,8.9-1.18,0-2.36-.77-3.53-1.19.67-.61,1.32-1.25,2-1.83a9.2,9.2,0,0,1,1.57-1.06c1.75-.93,3.46-3.79,4.58-5.2,2.29-2.89,3.05-4.6,2.89-8.41-.16-4,.59-7.46-2.42-10.71-.65-.7-2.09-1.49-2.26-2.64.09,0-.81-1.54,2.09-5.75.83-1.52,2.66-2.66,4.3-3.5.48-.25,2.17.84,2.63,1.69C83.79,220.39,84.69,226,84.71,231.86Z" transform="translate(-7.33 -108.19)"/><path class="cls-2" d="M60.5,249.59c-.57.09-1.4-.69-1.93-1.24a18,18,0,0,1-5.17-9.73c-1.19-7.86,2-10.6,3.26-14.1.42-1.16,1.09-2.24,1.43-3.42,1.49-5.11,6-6.53,10.16-8.42a5.5,5.5,0,0,1,1.79-.14,5.21,5.21,0,0,1-.73,1.58c-3.11,3.34-4.08,7.15-2.48,11.46,1.06,2.84,2.47,5.56,3.42,8.43C71.93,239.09,67.32,248.45,60.5,249.59Z" transform="translate(-7.33 -108.19)"/><text class="cls-3" transform="translate(154.15 103.96) scale(0.85 1)">A<tspan class="cls-4" x="38.56" y="0">M</tspan><tspan class="cls-5" x="84.63" y="0">B</tspan><tspan class="cls-6" x="120.12" y="0">E</tspan><tspan class="cls-7" x="151.32" y="0">R</tspan><tspan class="cls-8" x="186.92" y="0"> </tspan><tspan class="cls-9" x="202.57" y="0">J</tspan><tspan class="cls-10" x="218.34" y="0">A</tspan><tspan class="cls-7" x="256.93" y="0">R</tspan></text><text class="cls-11" transform="translate(153.52 166.6) scale(1.22 0.92)">C<tspan class="cls-12" x="36.53" y="0">O</tspan><tspan class="cls-13" x="78.58" y="0">FF</tspan><tspan class="cls-14" x="144.59" y="0">E</tspan><tspan class="cls-15" x="177.51" y="0">E</tspan></text></svg>