<svg id="Capa_1" enable-background="new 0 0 512 512" height="512" viewBox="0 0 512 512" width="512" xmlns="http://www.w3.org/2000/svg"><g><g><g><path d="m497 76h-482c-8.28 0-15 6.72-15 15v45h512v-45c0-8.28-6.72-15-15-15zm-151 180h-15v30h15c8.27 0 15-6.73 15-15s-6.73-15-15-15zm0 0h-15v30h15c8.27 0 15-6.73 15-15s-6.73-15-15-15zm0 0h-15v30h15c8.27 0 15-6.73 15-15s-6.73-15-15-15zm0 0h-15v30h15c8.27 0 15-6.73 15-15s-6.73-15-15-15zm-346-90v255c0 8.28 6.72 15 15 15h482c8.28 0 15-6.72 15-15v-255zm76 150c-8.28 0-15-6.72-15-15s6.72-15 15-15 15 6.72 15 15-6.72 15-15 15zm134.23-70.26-29.95 89.84c-.081.1-3.128 10.42-14.28 10.42-6.897 0-12.487-4.642-14.28-10.42l-29.95-89.84c-2.62-7.86 1.63-16.35 9.49-18.97s16.35 1.63 18.97 9.49l15.77 47.31 15.77-47.31c2.62-7.86 11.11-12.11 18.97-9.49s12.11 11.11 9.49 18.97zm60.77 85.26c0 8.28-6.72 15-15 15s-15-6.72-15-15v-90c0-8.28 6.72-15 15-15s15 6.72 15 15zm75-15h-15v15c0 8.28-6.72 15-15 15s-15-6.72-15-15v-90c0-8.28 6.72-15 15-15h30c24.81 0 45 20.19 45 45s-20.19 45-45 45zm90 0c-8.28 0-15-6.72-15-15s6.72-15 15-15 15 6.72 15 15-6.72 15-15 15zm-90-60h-15v30h15c8.27 0 15-6.73 15-15s-6.73-15-15-15zm0 0h-15v30h15c8.27 0 15-6.73 15-15s-6.73-15-15-15zm0 0h-15v30h15c8.27 0 15-6.73 15-15s-6.73-15-15-15zm0 0h-15v30h15c8.27 0 15-6.73 15-15s-6.73-15-15-15zm0 0h-15v30h15c8.27 0 15-6.73 15-15s-6.73-15-15-15z"/></g></g></g></svg>